<?xml version="1.0" standalone="no"?>
<!DOCTYPE svg PUBLIC "-//W3C//DTD SVG 20010904//EN"
 "http://www.w3.org/TR/2001/REC-SVG-20010904/DTD/svg10.dtd">
<svg version="1.0" xmlns="http://www.w3.org/2000/svg"
 width="150.000000pt" height="150.000000pt" viewBox="0 0 150.000000 150.000000"
 preserveAspectRatio="xMidYMid meet">
<metadata>
Created by potrace 1.16, written by Peter Selinger 2001-2019
</metadata>
<g transform="translate(0.000000,150.000000) scale(0.100000,-0.100000)"
fill="#000000" stroke="none">
<path d="M1100 834 c-26 -11 -40 -13 -52 -5 -26 16 -94 13 -107 -3 -7 -8 -26
-18 -42 -21 -16 -4 -37 -18 -47 -33 -32 -50 -95 -102 -122 -102 -14 0 -31 -5
-37 -11 -5 -5 -26 -10 -44 -11 -19 0 -65 -9 -102 -20 -51 -16 -71 -18 -79 -10
-16 16 -49 14 -72 -3 -11 -8 -28 -15 -38 -15 -29 0 -33 -28 -9 -54 27 -28 61
-94 61 -117 0 -24 49 -118 82 -157 15 -18 28 -44 28 -57 0 -15 6 -25 14 -25 9
0 16 -12 18 -31 4 -47 26 -56 84 -35 27 10 67 21 89 23 35 5 49 15 105 79 50
57 67 84 72 117 4 23 14 56 22 72 23 50 36 100 36 141 0 33 5 42 36 63 19 13
45 36 57 50 25 29 102 71 129 71 18 0 38 28 38 54 0 24 -37 56 -62 56 -13 -1
-39 -8 -58 -16z m-401 -254 c4 0 12 5 19 12 25 25 24 -4 -1 -30 -21 -22 -27
-38 -27 -72 l0 -44 35 34 c26 25 35 42 35 67 0 18 5 33 10 33 6 0 10 -9 10
-20 0 -18 3 -19 20 -8 24 15 37 4 20 -17 -10 -13 -9 -15 9 -15 11 0 21 -4 21
-10 0 -5 -14 -10 -31 -10 -29 0 -99 -43 -99 -61 0 -5 18 -9 40 -9 30 0 47 7
66 25 29 29 55 24 28 -6 -16 -18 -16 -19 4 -19 12 0 22 -4 22 -10 0 -5 -9 -10
-20 -10 -18 0 -19 -3 -8 -20 20 -31 0 -36 -30 -7 -20 19 -39 27 -65 27 -44 0
-46 -8 -9 -43 20 -19 39 -27 65 -27 20 0 37 -4 37 -10 0 -5 -9 -10 -20 -10
-22 0 -27 -16 -8 -22 6 -2 8 -10 4 -17 -6 -9 -12 -8 -27 5 -18 16 -19 16 -19
-9 0 -15 -4 -27 -10 -27 -5 0 -10 17 -10 38 0 29 -7 45 -28 65 -15 15 -31 27
-35 27 -4 0 -7 -17 -7 -37 0 -26 8 -45 26 -64 30 -32 24 -61 -7 -33 -18 16
-19 16 -19 -4 0 -12 -4 -22 -10 -22 -5 0 -10 10 -10 22 0 20 -1 20 -19 4 -29
-26 -34 -2 -6 24 19 18 25 34 25 67 0 24 -3 43 -7 43 -4 0 -20 -12 -35 -27
-21 -20 -28 -36 -28 -65 0 -21 -4 -38 -10 -38 -5 0 -10 9 -10 20 0 23 -10 26
-28 8 -9 -9 -12 -9 -12 3 0 8 5 20 12 27 9 9 6 12 -15 12 -15 0 -27 5 -27 10
0 6 17 10 37 10 26 0 45 8 65 27 37 35 35 43 -9 43 -26 0 -45 -8 -65 -27 -30
-29 -50 -24 -30 7 11 17 10 20 -8 20 -11 0 -20 5 -20 10 0 6 10 10 22 10 20 0
20 1 5 18 -27 29 -7 34 25 7 20 -17 42 -25 69 -25 21 0 39 4 39 9 0 21 -63 61
-96 61 -19 0 -34 5 -34 10 0 6 9 10 20 10 22 0 27 16 8 23 -7 2 -9 8 -5 13 4
4 17 3 27 -4 18 -11 20 -9 20 14 0 14 4 23 10 19 6 -3 10 -21 10 -39 0 -24 9
-41 35 -66 l35 -34 0 44 c0 34 -6 50 -27 72 -25 26 -26 55 -1 30 17 -17 25
-15 33 11 l8 22 4 -22 c2 -13 8 -23 12 -23z"/>
</g>
</svg>
